<svg width="134" height="275" viewBox="0 0 134 275" fill="none" xmlns="http://www.w3.org/2000/svg">
<g filter="url(#filter0_di_204_68)">
<g clip-path="url(#clip0_204_68)">
<rect x="9" width="125" height="267" rx="18" fill="#F2F2F2"/>
<rect x="10.5" y="1.5" width="154" height="297" rx="16.5" stroke="#E0E0E0"/>
<g filter="url(#filter1_ii_204_68)">
<g clip-path="url(#clip1_204_68)">
<rect x="16" y="175" width="111" height="85" rx="12" fill="#F2F2F2"/>
<path fill-rule="evenodd" clip-rule="evenodd" d="M127 196L15 196L15 175L127 175L127 196Z" fill="url(#paint0_linear_204_68)"/>
<path fill-rule="evenodd" clip-rule="evenodd" d="M127 218L15 218L15 196L127 196L127 218Z" fill="url(#paint1_linear_204_68)"/>
<path fill-rule="evenodd" clip-rule="evenodd" d="M127 239L15 239L15 218L127 218L127 239Z" fill="url(#paint2_linear_204_68)"/>
<g filter="url(#filter2_di_204_68)">
<rect x="68" y="214" width="7" height="2" rx="1" fill="#E0E0E0"/>
</g>
<g filter="url(#filter3_d_204_68)">
<g clip-path="url(#clip2_204_68)">
<path d="M32 186.998C32 188.102 32.7857 188.997 33.7545 188.997H38.2455C39.217 188.997 40 188.102 40 186.998C40 185.892 39.217 185 38.2455 185C37.2768 185 36.4911 185.895 36.4911 186.998C36.4911 187.59 36.7225 188.12 37.0965 188.473H34.9035C35.2775 188.12 35.5089 187.59 35.5089 186.998C35.5089 185.892 34.7232 185 33.7545 185C32.783 185 32 185.895 32 186.998ZM32.4601 186.995C32.4601 186.183 33.0414 185.521 33.7571 185.521C34.4702 185.521 35.0488 186.183 35.0488 186.995C35.0488 187.811 34.4702 188.473 33.7571 188.473C33.0414 188.473 32.4601 187.811 32.4601 186.995ZM36.9512 186.995C36.9512 186.183 37.5298 185.521 38.2428 185.521C38.9586 185.521 39.5399 186.183 39.5399 186.995C39.5399 187.811 38.9586 188.473 38.2428 188.473C37.5298 188.473 36.9512 187.811 36.9512 186.995Z" fill="#828282"/>
</g>
<path d="M27.3097 181.727V189H26.429V182.651H26.3864L24.6108 183.83V182.935L26.429 181.727H27.3097Z" fill="#828282"/>
</g>
<g filter="url(#filter4_d_204_68)">
<path d="M62.7528 189V188.361L65.1534 185.733C65.4351 185.425 65.6671 185.158 65.8494 184.93C66.0317 184.701 66.1667 184.485 66.2543 184.284C66.3442 184.08 66.3892 183.867 66.3892 183.645C66.3892 183.389 66.3277 183.168 66.2045 182.981C66.0838 182.794 65.9181 182.649 65.7074 182.548C65.4967 182.446 65.2599 182.395 64.9972 182.395C64.7178 182.395 64.474 182.453 64.2656 182.569C64.0597 182.683 63.8999 182.842 63.7862 183.048C63.675 183.254 63.6193 183.496 63.6193 183.773H62.7812C62.7812 183.347 62.8795 182.973 63.076 182.651C63.2725 182.329 63.54 182.078 63.8786 181.898C64.2195 181.718 64.6018 181.628 65.0256 181.628C65.4517 181.628 65.8293 181.718 66.1584 181.898C66.4875 182.078 66.7455 182.32 66.9325 182.626C67.1196 182.931 67.2131 183.271 67.2131 183.645C67.2131 183.912 67.1645 184.174 67.0675 184.43C66.9728 184.683 66.8071 184.966 66.5703 185.278C66.3359 185.589 66.0104 185.967 65.5938 186.415L63.9602 188.162V188.219H67.3409V189H62.7528Z" fill="#828282"/>
<path d="M70.4233 189.077C70.2159 189.077 70.0277 189.038 69.8587 188.96C69.6896 188.88 69.5554 188.766 69.456 188.616C69.3565 188.466 69.3068 188.284 69.3068 188.071C69.3068 187.884 69.3438 187.732 69.4176 187.615C69.4915 187.497 69.5902 187.405 69.7138 187.338C69.8374 187.271 69.9737 187.222 70.1229 187.189C70.2734 187.155 70.4247 187.128 70.5767 187.108C70.7756 187.082 70.9368 187.063 71.0604 187.05C71.1854 187.036 71.2763 187.013 71.3331 186.98C71.3913 186.947 71.4205 186.891 71.4205 186.81V186.793C71.4205 186.582 71.3629 186.419 71.2479 186.303C71.1342 186.186 70.9616 186.128 70.7301 186.128C70.4901 186.128 70.3018 186.18 70.1655 186.286C70.0291 186.391 69.9332 186.503 69.8778 186.622L69.4006 186.452C69.4858 186.253 69.5994 186.098 69.7415 185.987C69.8849 185.875 70.0412 185.797 70.2102 185.753C70.3807 185.707 70.5483 185.685 70.7131 185.685C70.8182 185.685 70.9389 185.697 71.0753 185.723C71.2131 185.747 71.3459 185.798 71.4737 185.874C71.603 185.951 71.7102 186.067 71.7955 186.222C71.8807 186.376 71.9233 186.584 71.9233 186.844V189H71.4205V188.557H71.3949C71.3608 188.628 71.304 188.704 71.2244 188.785C71.1449 188.866 71.0391 188.935 70.907 188.991C70.7749 189.048 70.6136 189.077 70.4233 189.077ZM70.5 188.625C70.6989 188.625 70.8665 188.586 71.0028 188.508C71.1406 188.43 71.2443 188.329 71.3139 188.205C71.3849 188.082 71.4205 187.952 71.4205 187.815V187.355C71.3991 187.381 71.3523 187.404 71.2798 187.425C71.2088 187.445 71.1264 187.463 71.0327 187.479C70.9403 187.493 70.8501 187.506 70.7621 187.517C70.6754 187.527 70.6051 187.536 70.5511 187.543C70.4205 187.56 70.2983 187.587 70.1847 187.626C70.0724 187.663 69.9815 187.719 69.9119 187.794C69.8438 187.868 69.8097 187.969 69.8097 188.097C69.8097 188.271 69.8743 188.403 70.0036 188.493C70.1342 188.581 70.2997 188.625 70.5 188.625ZM72.9093 189V184.636H73.4121V186.247H73.4547C73.4917 186.19 73.5428 186.118 73.6081 186.03C73.6749 185.94 73.7701 185.861 73.8936 185.791C74.0186 185.72 74.1877 185.685 74.4007 185.685C74.6763 185.685 74.9192 185.754 75.1294 185.891C75.3397 186.029 75.5037 186.224 75.6216 186.477C75.7395 186.73 75.7985 187.028 75.7985 187.372C75.7985 187.719 75.7395 188.019 75.6216 188.273C75.5037 188.526 75.3404 188.722 75.1316 188.862C74.9228 188.999 74.682 189.068 74.4093 189.068C74.199 189.068 74.0307 189.033 73.9043 188.964C73.7779 188.893 73.6806 188.812 73.6124 188.723C73.5442 188.632 73.4917 188.557 73.4547 188.497H73.3951V189H72.9093ZM73.4036 187.364C73.4036 187.611 73.4398 187.829 73.5123 188.018C73.5847 188.205 73.6905 188.352 73.8297 188.459C73.9689 188.564 74.1394 188.616 74.3411 188.616C74.5513 188.616 74.7267 188.561 74.8674 188.45C75.0094 188.338 75.1159 188.187 75.187 187.999C75.2594 187.808 75.2956 187.597 75.2956 187.364C75.2956 187.134 75.2601 186.926 75.1891 186.741C75.1195 186.555 75.0137 186.408 74.8716 186.3C74.731 186.191 74.5542 186.136 74.3411 186.136C74.1365 186.136 73.9647 186.188 73.8255 186.292C73.6863 186.394 73.5811 186.538 73.5101 186.722C73.4391 186.906 73.4036 187.119 73.4036 187.364ZM77.8972 189.068C77.5904 189.068 77.3262 188.996 77.1046 188.851C76.883 188.706 76.7125 188.506 76.5932 188.252C76.4739 187.998 76.4142 187.707 76.4142 187.381C76.4142 187.048 76.4753 186.755 76.5975 186.501C76.7211 186.245 76.8929 186.045 77.1131 185.902C77.3347 185.757 77.5932 185.685 77.8887 185.685C78.1188 185.685 78.3262 185.727 78.5108 185.812C78.6955 185.898 78.8468 186.017 78.9647 186.17C79.0826 186.324 79.1557 186.503 79.1841 186.707H78.6813C78.6429 186.558 78.5577 186.426 78.4256 186.311C78.2949 186.195 78.1188 186.136 77.8972 186.136C77.7012 186.136 77.5293 186.187 77.3816 186.29C77.2353 186.391 77.1209 186.533 77.0385 186.718C76.9576 186.901 76.9171 187.116 76.9171 187.364C76.9171 187.616 76.9569 187.837 77.0364 188.024C77.1174 188.212 77.231 188.357 77.3773 188.461C77.525 188.565 77.6983 188.616 77.8972 188.616C78.0279 188.616 78.1465 188.594 78.253 188.548C78.3596 188.503 78.4498 188.438 78.5236 188.352C78.5975 188.267 78.65 188.165 78.6813 188.045H79.1841C79.1557 188.239 79.0854 188.413 78.9732 188.567C78.8624 188.721 78.7154 188.843 78.5321 188.934C78.3503 189.023 78.1387 189.068 77.8972 189.068Z" fill="#828282"/>
</g>
<g filter="url(#filter5_d_204_68)">
<path d="M24.5824 208.509V207.784L27.7784 202.727H28.304V203.849H27.9489L25.5341 207.67V207.727H29.8381V208.509H24.5824ZM28.0057 210V208.288V207.951V202.727H28.8438V210H28.0057Z" fill="#828282"/>
<path d="M32.7812 211.295C32.5384 211.295 32.3295 211.264 32.1548 211.202C31.9801 211.141 31.8345 211.06 31.718 210.959C31.603 210.859 31.5114 210.753 31.4432 210.639L31.8438 210.358C31.8892 210.418 31.9467 210.486 32.0163 210.562C32.0859 210.641 32.1811 210.708 32.3018 210.765C32.424 210.823 32.5838 210.852 32.7812 210.852C33.0455 210.852 33.2635 210.788 33.4354 210.661C33.6072 210.533 33.6932 210.332 33.6932 210.06V209.395H33.6506C33.6136 209.455 33.5611 209.528 33.4929 209.616C33.4261 209.703 33.3295 209.781 33.2031 209.849C33.0781 209.915 32.9091 209.949 32.696 209.949C32.4318 209.949 32.1946 209.886 31.9844 209.761C31.7756 209.636 31.6101 209.455 31.4879 209.216C31.3672 208.977 31.3068 208.687 31.3068 208.347C31.3068 208.011 31.3658 207.719 31.4837 207.471C31.6016 207.221 31.7656 207.028 31.9759 206.891C32.1861 206.754 32.429 206.685 32.7045 206.685C32.9176 206.685 33.0866 206.72 33.2116 206.791C33.3381 206.861 33.4347 206.94 33.5014 207.03C33.5696 207.118 33.6222 207.19 33.6591 207.247H33.7102V206.727H34.196V210.094C34.196 210.375 34.1321 210.604 34.0043 210.78C33.8778 210.957 33.7074 211.087 33.4929 211.17C33.2798 211.254 33.0426 211.295 32.7812 211.295ZM32.7642 209.497C32.9659 209.497 33.1364 209.451 33.2756 209.359C33.4148 209.266 33.5206 209.134 33.593 208.96C33.6655 208.787 33.7017 208.58 33.7017 208.338C33.7017 208.102 33.6662 207.894 33.5952 207.714C33.5241 207.533 33.419 207.392 33.2798 207.29C33.1406 207.187 32.9688 207.136 32.7642 207.136C32.5511 207.136 32.3736 207.19 32.2315 207.298C32.0909 207.406 31.9851 207.551 31.9141 207.733C31.8445 207.915 31.8097 208.116 31.8097 208.338C31.8097 208.565 31.8452 208.766 31.9162 208.941C31.9886 209.114 32.0952 209.251 32.2358 209.35C32.3778 209.448 32.554 209.497 32.7642 209.497ZM35.6193 208.031V210H35.1165V205.636H35.6193V207.239H35.6619C35.7386 207.07 35.8537 206.935 36.0071 206.836C36.1619 206.735 36.3679 206.685 36.625 206.685C36.848 206.685 37.0433 206.729 37.2109 206.819C37.3786 206.907 37.5085 207.043 37.6009 207.226C37.6946 207.408 37.7415 207.639 37.7415 207.92V210H37.2386V207.955C37.2386 207.695 37.1712 207.494 37.0362 207.352C36.9027 207.208 36.7173 207.136 36.4801 207.136C36.3153 207.136 36.1676 207.171 36.0369 207.241C35.9077 207.31 35.8054 207.412 35.7301 207.545C35.6563 207.679 35.6193 207.841 35.6193 208.031ZM38.6614 210V206.727H39.1642V210H38.6614ZM38.9171 206.182C38.8191 206.182 38.7346 206.148 38.6635 206.082C38.5939 206.015 38.5591 205.935 38.5591 205.841C38.5591 205.747 38.5939 205.667 38.6635 205.6C38.7346 205.533 38.8191 205.5 38.9171 205.5C39.0151 205.5 39.0989 205.533 39.1685 205.6C39.2395 205.667 39.275 205.747 39.275 205.841C39.275 205.935 39.2395 206.015 39.1685 206.082C39.0989 206.148 39.0151 206.182 38.9171 206.182Z" fill="#828282"/>
</g>
<g filter="url(#filter6_d_204_68)">
<path d="M67.0256 210.099C66.6089 210.099 66.2337 210.017 65.8999 209.851C65.5661 209.685 65.2985 209.458 65.0973 209.169C64.8961 208.88 64.786 208.551 64.767 208.182H65.6193C65.6525 208.511 65.8016 208.783 66.0668 208.999C66.3343 209.212 66.6539 209.318 67.0256 209.318C67.3239 209.318 67.589 209.248 67.821 209.109C68.0554 208.969 68.2389 208.777 68.3714 208.533C68.5064 208.287 68.5739 208.009 68.5739 207.699C68.5739 207.382 68.504 207.099 68.3643 206.85C68.227 206.599 68.0376 206.402 67.7962 206.257C67.5547 206.113 67.2789 206.039 66.9688 206.037C66.7462 206.035 66.5178 206.069 66.2834 206.14C66.049 206.209 65.8561 206.297 65.7045 206.406L64.8807 206.307L65.321 202.727H69.0994V203.509H66.0597L65.804 205.653H65.8466C65.9957 205.535 66.1828 205.437 66.4077 205.359C66.6326 205.281 66.867 205.241 67.1108 205.241C67.5559 205.241 67.9524 205.348 68.3004 205.561C68.6508 205.772 68.9254 206.061 69.1243 206.428C69.3255 206.795 69.4261 207.214 69.4261 207.685C69.4261 208.149 69.322 208.563 69.1136 208.928C68.9077 209.29 68.6236 209.576 68.2614 209.787C67.8991 209.995 67.4872 210.099 67.0256 210.099Z" fill="#828282"/>
<path d="M71.4602 206.727H71.9631V210.239C71.9631 210.44 71.9283 210.615 71.8587 210.763C71.7905 210.911 71.6868 211.025 71.5476 211.106C71.4098 211.187 71.2358 211.227 71.0256 211.227C71.0085 211.227 70.9915 211.227 70.9744 211.227C70.9574 211.227 70.9403 211.227 70.9233 211.227V210.759C70.9403 210.759 70.956 210.759 70.9702 210.759C70.9844 210.759 71 210.759 71.017 210.759C71.1705 210.759 71.2827 210.713 71.3537 210.622C71.4247 210.533 71.4602 210.405 71.4602 210.239V206.727ZM71.7074 206.182C71.6094 206.182 71.5249 206.148 71.4538 206.082C71.3842 206.015 71.3494 205.935 71.3494 205.841C71.3494 205.747 71.3842 205.667 71.4538 205.6C71.5249 205.533 71.6094 205.5 71.7074 205.5C71.8054 205.5 71.8892 205.533 71.9588 205.6C72.0298 205.667 72.0653 205.747 72.0653 205.841C72.0653 205.935 72.0298 206.015 71.9588 206.082C71.8892 206.148 71.8054 206.182 71.7074 206.182ZM73.3528 208.807L73.3443 208.185H73.4466L74.8784 206.727H75.5005L73.975 208.27H73.9324L73.3528 208.807ZM72.8841 210V205.636H73.3869V210H72.8841ZM74.9636 210L73.6852 208.381L74.0431 208.031L75.6028 210H74.9636ZM76.6506 205.636V210H76.1477V205.636H76.6506Z" fill="#828282"/>
</g>
<g filter="url(#filter7_d_204_68)">
<path d="M103.168 210.099C102.869 210.095 102.571 210.038 102.273 209.929C101.974 209.82 101.702 209.637 101.456 209.379C101.21 209.118 101.012 208.767 100.863 208.324C100.714 207.879 100.639 207.32 100.639 206.648C100.639 206.004 100.7 205.433 100.82 204.936C100.941 204.437 101.116 204.016 101.346 203.675C101.576 203.332 101.853 203.072 102.177 202.894C102.504 202.717 102.872 202.628 103.281 202.628C103.688 202.628 104.051 202.71 104.368 202.873C104.688 203.034 104.948 203.259 105.149 203.548C105.35 203.836 105.481 204.169 105.54 204.545H104.673C104.593 204.219 104.437 203.948 104.205 203.732C103.973 203.517 103.665 203.409 103.281 203.409C102.718 203.409 102.274 203.654 101.95 204.144C101.628 204.634 101.465 205.322 101.463 206.207H101.52C101.652 206.006 101.81 205.835 101.992 205.692C102.177 205.548 102.38 205.437 102.603 205.359C102.826 205.281 103.061 205.241 103.31 205.241C103.726 205.241 104.107 205.346 104.453 205.554C104.799 205.76 105.076 206.045 105.284 206.41C105.492 206.772 105.597 207.188 105.597 207.656C105.597 208.106 105.496 208.518 105.295 208.892C105.094 209.264 104.811 209.56 104.446 209.78C104.084 209.998 103.658 210.104 103.168 210.099ZM103.168 209.318C103.466 209.318 103.733 209.244 103.97 209.094C104.209 208.945 104.397 208.745 104.535 208.494C104.674 208.243 104.744 207.964 104.744 207.656C104.744 207.356 104.677 207.082 104.542 206.836C104.409 206.587 104.226 206.39 103.991 206.243C103.759 206.096 103.494 206.023 103.196 206.023C102.971 206.023 102.762 206.068 102.567 206.158C102.373 206.245 102.203 206.366 102.056 206.52C101.912 206.674 101.798 206.85 101.715 207.049C101.632 207.246 101.591 207.453 101.591 207.67C101.591 207.959 101.658 208.229 101.793 208.48C101.931 208.731 102.118 208.933 102.354 209.087C102.594 209.241 102.865 209.318 103.168 209.318Z" fill="#828282"/>
<path d="M107.46 210V206.727H107.946V207.239H107.989C108.057 207.064 108.167 206.928 108.319 206.832C108.471 206.734 108.653 206.685 108.866 206.685C109.082 206.685 109.262 206.734 109.406 206.832C109.55 206.928 109.663 207.064 109.744 207.239H109.778C109.862 207.07 109.988 206.935 110.156 206.836C110.323 206.735 110.524 206.685 110.759 206.685C111.051 206.685 111.29 206.776 111.477 206.96C111.663 207.141 111.756 207.425 111.756 207.81V210H111.253V207.81C111.253 207.568 111.187 207.396 111.055 207.292C110.923 207.188 110.767 207.136 110.588 207.136C110.358 207.136 110.18 207.206 110.053 207.345C109.927 207.483 109.864 207.658 109.864 207.869V210H109.352V207.759C109.352 207.572 109.292 207.423 109.171 207.309C109.05 207.194 108.895 207.136 108.705 207.136C108.574 207.136 108.452 207.171 108.338 207.241C108.226 207.31 108.135 207.407 108.065 207.531C107.997 207.653 107.963 207.794 107.963 207.955V210H107.46ZM113.178 208.031V210H112.675V206.727H113.161V207.239H113.203C113.28 207.072 113.397 206.939 113.553 206.838C113.709 206.736 113.911 206.685 114.158 206.685C114.38 206.685 114.574 206.73 114.74 206.821C114.906 206.911 115.035 207.047 115.127 207.23C115.22 207.412 115.266 207.642 115.266 207.92V210H114.763V207.955C114.763 207.697 114.696 207.497 114.563 207.354C114.429 207.209 114.246 207.136 114.013 207.136C113.853 207.136 113.709 207.171 113.583 207.241C113.458 207.31 113.359 207.412 113.287 207.545C113.214 207.679 113.178 207.841 113.178 208.031ZM117.514 210.068C117.219 210.068 116.96 209.998 116.737 209.857C116.515 209.717 116.342 209.52 116.217 209.267C116.093 209.014 116.031 208.719 116.031 208.381C116.031 208.04 116.093 207.742 116.217 207.488C116.342 207.234 116.515 207.036 116.737 206.896C116.96 206.755 117.219 206.685 117.514 206.685C117.81 206.685 118.068 206.755 118.29 206.896C118.513 207.036 118.686 207.234 118.81 207.488C118.935 207.742 118.997 208.04 118.997 208.381C118.997 208.719 118.935 209.014 118.81 209.267C118.686 209.52 118.513 209.717 118.29 209.857C118.068 209.998 117.81 210.068 117.514 210.068ZM117.514 209.616C117.739 209.616 117.923 209.559 118.068 209.444C118.213 209.329 118.32 209.178 118.39 208.99C118.46 208.803 118.494 208.599 118.494 208.381C118.494 208.162 118.46 207.958 118.39 207.769C118.32 207.58 118.213 207.428 118.068 207.311C117.923 207.195 117.739 207.136 117.514 207.136C117.29 207.136 117.105 207.195 116.96 207.311C116.816 207.428 116.708 207.58 116.639 207.769C116.569 207.958 116.534 208.162 116.534 208.381C116.534 208.599 116.569 208.803 116.639 208.99C116.708 209.178 116.816 209.329 116.96 209.444C117.105 209.559 117.29 209.616 117.514 209.616Z" fill="#828282"/>
</g>
<g filter="url(#filter8_d_204_68)">
<path d="M24.9801 232L28.233 225.565V225.509H24.483V224.727H29.142V225.551L25.9034 232H24.9801Z" fill="#828282"/>
<path d="M31.4602 233.227V228.727H31.946V229.247H32.0057C32.0426 229.19 32.0938 229.118 32.1591 229.03C32.2259 228.94 32.321 228.861 32.4446 228.791C32.5696 228.72 32.7386 228.685 32.9517 228.685C33.2273 228.685 33.4702 228.754 33.6804 228.891C33.8906 229.029 34.0547 229.224 34.1726 229.477C34.2905 229.73 34.3494 230.028 34.3494 230.372C34.3494 230.719 34.2905 231.019 34.1726 231.273C34.0547 231.526 33.8913 231.722 33.6825 231.862C33.4737 231.999 33.233 232.068 32.9602 232.068C32.75 232.068 32.5817 232.033 32.4553 231.964C32.3288 231.893 32.2315 231.812 32.1634 231.723C32.0952 231.632 32.0426 231.557 32.0057 231.497H31.9631V233.227H31.4602ZM31.9545 230.364C31.9545 230.611 31.9908 230.829 32.0632 231.018C32.1357 231.205 32.2415 231.352 32.3807 231.459C32.5199 231.564 32.6903 231.616 32.892 231.616C33.1023 231.616 33.2777 231.561 33.4183 231.45C33.5604 231.338 33.6669 231.187 33.7379 230.999C33.8104 230.808 33.8466 230.597 33.8466 230.364C33.8466 230.134 33.8111 229.926 33.7401 229.741C33.6705 229.555 33.5646 229.408 33.4226 229.3C33.282 229.191 33.1051 229.136 32.892 229.136C32.6875 229.136 32.5156 229.188 32.3764 229.292C32.2372 229.394 32.1321 229.538 32.0611 229.722C31.9901 229.906 31.9545 230.119 31.9545 230.364ZM37.3494 233.227V231.497H37.3068C37.2699 231.557 37.2173 231.632 37.1491 231.723C37.081 231.812 36.9837 231.893 36.8572 231.964C36.7308 232.033 36.5625 232.068 36.3523 232.068C36.0795 232.068 35.8388 231.999 35.63 231.862C35.4212 231.722 35.2578 231.526 35.1399 231.273C35.022 231.019 34.9631 230.719 34.9631 230.372C34.9631 230.028 35.022 229.73 35.1399 229.477C35.2578 229.224 35.4219 229.029 35.6321 228.891C35.8423 228.754 36.0852 228.685 36.3608 228.685C36.5739 228.685 36.7422 228.72 36.8658 228.791C36.9908 228.861 37.0859 228.94 37.1513 229.03C37.218 229.118 37.2699 229.19 37.3068 229.247H37.3665V228.727H37.8523V233.227H37.3494ZM36.4205 231.616C36.6222 231.616 36.7926 231.564 36.9318 231.459C37.071 231.352 37.1768 231.205 37.2493 231.018C37.3217 230.829 37.358 230.611 37.358 230.364C37.358 230.119 37.3224 229.906 37.2514 229.722C37.1804 229.538 37.0753 229.394 36.9361 229.292C36.7969 229.188 36.625 229.136 36.4205 229.136C36.2074 229.136 36.0298 229.191 35.8878 229.3C35.7472 229.408 35.6413 229.555 35.5703 229.741C35.5007 229.926 35.4659 230.134 35.4659 230.364C35.4659 230.597 35.5014 230.808 35.5724 230.999C35.6449 231.187 35.7514 231.338 35.892 231.45C36.0341 231.561 36.2102 231.616 36.4205 231.616ZM38.7727 232V228.727H39.2585V229.222H39.2926C39.3523 229.06 39.4602 228.928 39.6165 228.827C39.7727 228.727 39.9489 228.676 40.1449 228.676C40.1818 228.676 40.228 228.677 40.2834 228.678C40.3388 228.68 40.3807 228.682 40.4091 228.685V229.196C40.392 229.192 40.353 229.185 40.2919 229.177C40.2322 229.167 40.169 229.162 40.1023 229.162C39.9432 229.162 39.8011 229.195 39.6761 229.262C39.5526 229.327 39.4545 229.418 39.3821 229.535C39.3111 229.65 39.2756 229.781 39.2756 229.929V232H38.7727ZM43.3233 229.46L42.8716 229.588C42.8432 229.513 42.8013 229.44 42.7459 229.369C42.6919 229.296 42.6181 229.237 42.5243 229.19C42.4306 229.143 42.3105 229.119 42.1642 229.119C41.964 229.119 41.7971 229.165 41.6635 229.258C41.5314 229.349 41.4654 229.464 41.4654 229.605C41.4654 229.73 41.5108 229.829 41.6017 229.901C41.6926 229.974 41.8347 230.034 42.0279 230.082L42.5137 230.202C42.8063 230.273 43.0243 230.381 43.1678 230.528C43.3113 230.673 43.383 230.859 43.383 231.088C43.383 231.276 43.329 231.443 43.2211 231.591C43.1145 231.739 42.9654 231.855 42.7736 231.94C42.5819 232.026 42.3588 232.068 42.1046 232.068C41.7708 232.068 41.4945 231.996 41.2757 231.851C41.057 231.706 40.9185 231.494 40.8603 231.216L41.3375 231.097C41.383 231.273 41.4689 231.405 41.5953 231.493C41.7232 231.581 41.8901 231.625 42.0961 231.625C42.3304 231.625 42.5165 231.575 42.6543 231.476C42.7935 231.375 42.8631 231.254 42.8631 231.114C42.8631 231 42.8233 230.905 42.7438 230.828C42.6642 230.75 42.5421 230.692 42.3773 230.653L41.8319 230.526C41.5321 230.455 41.312 230.344 41.1713 230.195C41.0321 230.045 40.9625 229.857 40.9625 229.631C40.9625 229.446 41.0144 229.283 41.1181 229.141C41.2232 228.999 41.3659 228.887 41.5463 228.806C41.7282 228.725 41.9341 228.685 42.1642 228.685C42.4881 228.685 42.7424 228.756 42.927 228.898C43.1131 229.04 43.2452 229.227 43.3233 229.46Z" fill="#828282"/>
</g>
<g filter="url(#filter9_d_204_68)">
<path d="M66.0824 232.099C65.5947 232.099 65.1638 232.013 64.7898 231.84C64.4181 231.665 64.1281 231.425 63.9197 231.119C63.7114 230.812 63.6084 230.461 63.6108 230.068C63.6084 229.76 63.6688 229.476 63.7919 229.216C63.915 228.953 64.0831 228.734 64.2962 228.559C64.5116 228.381 64.7519 228.269 65.017 228.222V228.179C64.669 228.089 64.392 227.894 64.1861 227.593C63.9801 227.29 63.8783 226.946 63.8807 226.56C63.8783 226.19 63.9718 225.86 64.1612 225.569C64.3506 225.278 64.611 225.048 64.9425 224.88C65.2763 224.712 65.6563 224.628 66.0824 224.628C66.5038 224.628 66.8802 224.712 67.2116 224.88C67.5431 225.048 67.8035 225.278 67.9929 225.569C68.1847 225.86 68.2817 226.19 68.2841 226.56C68.2817 226.946 68.1764 227.29 67.968 227.593C67.7621 227.894 67.4886 228.089 67.1477 228.179V228.222C67.4105 228.269 67.6473 228.381 67.858 228.559C68.0687 228.734 68.2367 228.953 68.3622 229.216C68.4877 229.476 68.5516 229.76 68.554 230.068C68.5516 230.461 68.4451 230.812 68.2344 231.119C68.026 231.425 67.736 231.665 67.3643 231.84C66.995 232.013 66.5677 232.099 66.0824 232.099ZM66.0824 231.318C66.4115 231.318 66.6955 231.265 66.9347 231.158C67.1738 231.052 67.3584 230.902 67.4886 230.707C67.6188 230.513 67.6851 230.286 67.6875 230.026C67.6851 229.751 67.6141 229.508 67.4744 229.298C67.3348 229.087 67.1442 228.921 66.9027 228.8C66.6636 228.68 66.3902 228.619 66.0824 228.619C65.7723 228.619 65.4953 228.68 65.2514 228.8C65.0099 228.921 64.8194 229.087 64.6797 229.298C64.5424 229.508 64.4749 229.751 64.4773 230.026C64.4749 230.286 64.5376 230.513 64.6655 230.707C64.7957 230.902 64.9815 231.052 65.223 231.158C65.4645 231.265 65.7509 231.318 66.0824 231.318ZM66.0824 227.866C66.3428 227.866 66.5736 227.814 66.7749 227.71C66.9785 227.606 67.1383 227.46 67.2543 227.273C67.3703 227.086 67.4295 226.867 67.4318 226.616C67.4295 226.37 67.3714 226.156 67.2578 225.974C67.1442 225.789 66.9867 225.647 66.7855 225.548C66.5843 225.446 66.3499 225.395 66.0824 225.395C65.8101 225.395 65.5722 225.446 65.3686 225.548C65.165 225.647 65.0076 225.789 64.8963 225.974C64.785 226.156 64.7306 226.37 64.733 226.616C64.7306 226.867 64.7862 227.086 64.8999 227.273C65.0159 227.46 65.1757 227.606 65.3793 227.71C65.5829 227.814 65.8172 227.866 66.0824 227.866Z" fill="#828282"/>
<path d="M71.8835 228.727V229.153H70.1875V228.727H71.8835ZM70.6818 227.943H71.1847V231.062C71.1847 231.205 71.2053 231.311 71.2464 231.382C71.2891 231.452 71.343 231.499 71.4084 231.523C71.4751 231.545 71.5455 231.557 71.6193 231.557C71.6747 231.557 71.7202 231.554 71.7557 231.548C71.7912 231.541 71.8196 231.536 71.8409 231.531L71.9432 231.983C71.9091 231.996 71.8615 232.009 71.8004 232.021C71.7393 232.036 71.6619 232.043 71.5682 232.043C71.4261 232.043 71.2869 232.012 71.1506 231.951C71.0156 231.89 70.9034 231.797 70.8139 231.672C70.7259 231.547 70.6818 231.389 70.6818 231.199V227.943ZM74.7024 230.662V228.727H75.2053V232H74.7024V231.446H74.6683C74.5916 231.612 74.4723 231.754 74.3104 231.87C74.1484 231.985 73.9439 232.043 73.6967 232.043C73.4922 232.043 73.3104 231.998 73.1513 231.908C72.9922 231.817 72.8672 231.681 72.7763 231.499C72.6854 231.316 72.6399 231.085 72.6399 230.807V228.727H73.1428V230.773C73.1428 231.011 73.2095 231.202 73.343 231.344C73.478 231.486 73.6499 231.557 73.8587 231.557C73.9837 231.557 74.1108 231.525 74.2401 231.461C74.3707 231.397 74.4801 231.299 74.5682 231.167C74.6577 231.035 74.7024 230.866 74.7024 230.662ZM78.8024 228.727L77.5922 232H77.0808L75.8706 228.727H76.416L77.3194 231.335H77.3535L78.2569 228.727H78.8024Z" fill="#828282"/>
</g>
<g filter="url(#filter10_d_204_68)">
<path d="M101.068 224.628C101.366 224.63 101.665 224.687 101.963 224.798C102.261 224.91 102.534 225.094 102.78 225.352C103.026 225.608 103.224 225.957 103.373 226.4C103.522 226.843 103.597 227.398 103.597 228.065C103.597 228.712 103.535 229.286 103.412 229.788C103.291 230.287 103.116 230.709 102.886 231.052C102.659 231.395 102.382 231.656 102.055 231.833C101.731 232.011 101.364 232.099 100.955 232.099C100.547 232.099 100.184 232.019 99.8643 231.858C99.5471 231.695 99.2867 231.469 99.0831 231.18C98.8819 230.888 98.7528 230.551 98.696 230.168H99.5625C99.6406 230.501 99.7957 230.777 100.028 230.995C100.262 231.21 100.571 231.318 100.955 231.318C101.516 231.318 101.958 231.073 102.283 230.583C102.609 230.093 102.773 229.401 102.773 228.506H102.716C102.583 228.705 102.426 228.876 102.244 229.021C102.061 229.165 101.859 229.276 101.636 229.354C101.414 229.433 101.177 229.472 100.926 229.472C100.509 229.472 100.127 229.369 99.7791 229.163C99.4335 228.954 99.1565 228.669 98.9482 228.307C98.7422 227.942 98.6392 227.526 98.6392 227.057C98.6392 226.612 98.7386 226.205 98.9375 225.835C99.1387 225.464 99.4205 225.168 99.7827 224.947C100.147 224.727 100.576 224.621 101.068 224.628ZM101.068 225.409C100.77 225.409 100.501 225.484 100.262 225.633C100.025 225.78 99.8371 225.978 99.6974 226.229C99.5601 226.478 99.4915 226.754 99.4915 227.057C99.4915 227.36 99.5578 227.636 99.6903 227.884C99.8253 228.13 100.009 228.327 100.241 228.474C100.475 228.618 100.741 228.69 101.04 228.69C101.265 228.69 101.474 228.647 101.668 228.559C101.862 228.469 102.032 228.347 102.176 228.193C102.323 228.037 102.438 227.861 102.521 227.664C102.603 227.465 102.645 227.258 102.645 227.043C102.645 226.759 102.576 226.492 102.439 226.244C102.304 225.995 102.117 225.794 101.878 225.64C101.641 225.486 101.371 225.409 101.068 225.409Z" fill="#828282"/>
<path d="M106.202 232L105.205 228.727H105.733L106.44 231.233H106.474L107.173 228.727H107.71L108.401 231.224H108.435L109.142 228.727H109.67L108.673 232H108.179L107.463 229.486H107.412L106.696 232H106.202ZM110.71 228.727L111.494 230.065L112.278 228.727H112.858L111.801 230.364L112.858 232H112.278L111.494 230.73L110.71 232H110.131L111.17 230.364L110.131 228.727H110.71ZM113.899 233.227C113.814 233.227 113.738 233.22 113.671 233.206C113.605 233.193 113.558 233.18 113.533 233.168L113.661 232.724C113.783 232.756 113.891 232.767 113.985 232.759C114.078 232.75 114.161 232.708 114.234 232.633C114.308 232.559 114.375 232.439 114.436 232.273L114.53 232.017L113.32 228.727H113.865L114.769 231.335H114.803L115.706 228.727H116.252L114.862 232.477C114.8 232.646 114.722 232.786 114.63 232.897C114.538 233.009 114.431 233.092 114.308 233.146C114.188 233.2 114.051 233.227 113.899 233.227ZM116.822 232V231.616L118.68 229.23V229.196H116.881V228.727H119.327V229.128L117.52 231.497V231.531H119.387V232H116.822Z" fill="#828282"/>
</g>
<g filter="url(#filter11_d_204_68)">
<path d="M101.48 253L102.673 245.727H103.384L102.19 253H101.48ZM98.1705 250.983L98.2841 250.273H103.71L103.597 250.983H98.1705ZM98.9233 253L100.116 245.727H100.827L99.6335 253H98.9233ZM98.5966 248.455L98.7102 247.744H104.136L104.023 248.455H98.5966Z" fill="#828282"/>
<path d="M107.629 253V249.497L106.283 250.848L105.95 250.52L107.864 248.611L109.773 250.52L109.449 250.848L108.098 249.497V253H107.629ZM114.777 251.031V248.5L116.043 249.766L114.777 251.031ZM111.321 253V249.536H111.781V253H111.321ZM111.334 249.996V249.536H115.165V249.996H111.334Z" fill="#828282"/>
</g>
<g filter="url(#filter12_d_204_68)">
<path d="M105.21 189.099C104.741 189.099 104.324 189.019 103.957 188.858C103.592 188.697 103.302 188.473 103.087 188.187C102.874 187.898 102.758 187.563 102.739 187.182H103.634C103.652 187.416 103.733 187.619 103.875 187.789C104.017 187.957 104.203 188.087 104.433 188.18C104.662 188.272 104.917 188.318 105.196 188.318C105.509 188.318 105.786 188.264 106.027 188.155C106.268 188.046 106.458 187.894 106.595 187.7C106.732 187.506 106.801 187.281 106.801 187.026C106.801 186.758 106.735 186.522 106.602 186.319C106.47 186.113 106.276 185.952 106.02 185.836C105.764 185.72 105.452 185.662 105.082 185.662H104.5V184.881H105.082C105.371 184.881 105.625 184.829 105.842 184.724C106.063 184.62 106.234 184.473 106.357 184.284C106.483 184.095 106.545 183.872 106.545 183.616C106.545 183.37 106.491 183.156 106.382 182.974C106.273 182.791 106.119 182.649 105.92 182.548C105.724 182.446 105.492 182.395 105.224 182.395C104.973 182.395 104.737 182.441 104.514 182.533C104.294 182.623 104.114 182.755 103.974 182.928C103.835 183.098 103.759 183.304 103.747 183.545H102.895C102.909 183.164 103.024 182.83 103.239 182.544C103.455 182.255 103.737 182.03 104.085 181.869C104.435 181.708 104.82 181.628 105.239 181.628C105.688 181.628 106.074 181.719 106.396 181.901C106.718 182.081 106.966 182.319 107.138 182.615C107.311 182.911 107.398 183.231 107.398 183.574C107.398 183.983 107.29 184.333 107.075 184.621C106.862 184.91 106.571 185.11 106.205 185.222V185.278C106.664 185.354 107.022 185.549 107.281 185.864C107.539 186.177 107.668 186.564 107.668 187.026C107.668 187.421 107.56 187.776 107.344 188.091C107.131 188.403 106.84 188.65 106.471 188.83C106.102 189.009 105.681 189.099 105.21 189.099Z" fill="#828282"/>
<path d="M110.696 189.068C110.423 189.068 110.183 188.999 109.974 188.862C109.765 188.722 109.602 188.526 109.484 188.273C109.366 188.019 109.307 187.719 109.307 187.372C109.307 187.028 109.366 186.73 109.484 186.477C109.602 186.224 109.766 186.029 109.976 185.891C110.186 185.754 110.429 185.685 110.705 185.685C110.918 185.685 111.086 185.72 111.21 185.791C111.335 185.861 111.43 185.94 111.495 186.03C111.562 186.118 111.614 186.19 111.651 186.247H111.693V184.636H112.196V189H111.71V188.497H111.651C111.614 188.557 111.561 188.632 111.493 188.723C111.425 188.812 111.327 188.893 111.201 188.964C111.075 189.033 110.906 189.068 110.696 189.068ZM110.764 188.616C110.966 188.616 111.136 188.564 111.276 188.459C111.415 188.352 111.521 188.205 111.593 188.018C111.665 187.829 111.702 187.611 111.702 187.364C111.702 187.119 111.666 186.906 111.595 186.722C111.524 186.538 111.419 186.394 111.28 186.292C111.141 186.188 110.969 186.136 110.764 186.136C110.551 186.136 110.374 186.191 110.232 186.3C110.091 186.408 109.985 186.555 109.914 186.741C109.844 186.926 109.81 187.134 109.81 187.364C109.81 187.597 109.845 187.808 109.916 187.999C109.989 188.187 110.095 188.338 110.236 188.45C110.378 188.561 110.554 188.616 110.764 188.616ZM114.559 189.068C114.244 189.068 113.972 188.999 113.743 188.859C113.516 188.719 113.34 188.523 113.217 188.271C113.094 188.018 113.033 187.724 113.033 187.389C113.033 187.054 113.094 186.759 113.217 186.503C113.34 186.246 113.512 186.045 113.732 185.902C113.954 185.757 114.212 185.685 114.508 185.685C114.678 185.685 114.847 185.713 115.013 185.77C115.179 185.827 115.33 185.919 115.467 186.047C115.603 186.173 115.712 186.341 115.793 186.55C115.874 186.759 115.914 187.016 115.914 187.321V187.534H113.391V187.099H115.403C115.403 186.915 115.366 186.75 115.292 186.605C115.219 186.46 115.116 186.346 114.981 186.262C114.847 186.178 114.69 186.136 114.508 186.136C114.308 186.136 114.134 186.186 113.988 186.286C113.843 186.384 113.732 186.511 113.653 186.669C113.575 186.827 113.536 186.996 113.536 187.176V187.466C113.536 187.713 113.579 187.923 113.664 188.094C113.751 188.265 113.871 188.395 114.024 188.484C114.178 188.572 114.356 188.616 114.559 188.616C114.691 188.616 114.81 188.598 114.917 188.561C115.025 188.523 115.118 188.466 115.196 188.391C115.274 188.314 115.335 188.219 115.377 188.105L115.863 188.241C115.812 188.406 115.726 188.551 115.605 188.676C115.484 188.8 115.335 188.896 115.158 188.966C114.98 189.034 114.781 189.068 114.559 189.068ZM118.136 185.727V186.153H116.372V185.727H118.136ZM116.901 189V185.276C116.901 185.088 116.945 184.932 117.033 184.807C117.121 184.682 117.235 184.588 117.376 184.526C117.516 184.463 117.665 184.432 117.821 184.432C117.945 184.432 118.045 184.442 118.124 184.462C118.202 184.482 118.26 184.5 118.298 184.517L118.153 184.952C118.128 184.943 118.092 184.933 118.047 184.92C118.003 184.907 117.945 184.901 117.872 184.901C117.706 184.901 117.586 184.942 117.512 185.026C117.44 185.11 117.403 185.233 117.403 185.395V189H116.901Z" fill="#828282"/>
</g>
<g filter="url(#filter13_d_204_68)">
<path d="M26.1591 250.818L26.2159 249.256L24.8949 250.094L24.554 249.497L25.946 248.773L24.554 248.048L24.8949 247.452L26.2159 248.29L26.1591 246.727H26.8409L26.7841 248.29L28.1051 247.452L28.446 248.048L27.054 248.773L28.446 249.497L28.1051 250.094L26.7841 249.256L26.8409 250.818H26.1591Z" fill="#828282"/>
<path d="M33.7386 252.702V249.889H34.2159V252.702H33.7386ZM32.571 251.534V251.057H35.3835V251.534H32.571Z" fill="#828282"/>
<circle cx="32.5" cy="246.5" r="1.25" stroke="#828282" stroke-width="0.5"/>
<path d="M34 246.5H36.5V247.5" stroke="#828282" stroke-width="0.5"/>
</g>
<g filter="url(#filter14_d_204_68)">
<path d="M68.125 253.099C67.59 253.099 67.1342 252.954 66.7578 252.663C66.3814 252.369 66.0938 251.944 65.8949 251.388C65.696 250.829 65.5966 250.154 65.5966 249.364C65.5966 248.578 65.696 247.906 65.8949 247.35C66.0961 246.791 66.3849 246.365 66.7614 246.072C67.1402 245.776 67.5947 245.628 68.125 245.628C68.6553 245.628 69.1087 245.776 69.4851 246.072C69.8639 246.365 70.1527 246.791 70.3516 247.35C70.5528 247.906 70.6534 248.578 70.6534 249.364C70.6534 250.154 70.554 250.829 70.3551 251.388C70.1562 251.944 69.8686 252.369 69.4922 252.663C69.1158 252.954 68.66 253.099 68.125 253.099ZM68.125 252.318C68.6553 252.318 69.0672 252.062 69.3608 251.551C69.6544 251.04 69.8011 250.311 69.8011 249.364C69.8011 248.734 69.7337 248.198 69.5987 247.755C69.4661 247.312 69.2744 246.975 69.0234 246.743C68.7749 246.511 68.4754 246.395 68.125 246.395C67.5994 246.395 67.1887 246.654 66.8928 247.173C66.5968 247.689 66.4489 248.419 66.4489 249.364C66.4489 249.993 66.5152 250.528 66.6477 250.969C66.7803 251.409 66.9709 251.744 67.2195 251.974C67.4704 252.203 67.7723 252.318 68.125 252.318Z" fill="#828282"/>
<path d="M74 250V252L79 252V250" stroke="#828282" stroke-width="0.5"/>
</g>
</g>
<rect x="16.25" y="175.25" width="110.5" height="84.5" rx="11.75" stroke="#E0E0E0" stroke-width="0.5"/>
</g>
<g filter="url(#filter15_di_204_68)">
<g clip-path="url(#clip3_204_68)">
<rect x="16" y="7" width="111" height="163" rx="12" fill="#2B2B2B"/>
<rect width="100" height="90" transform="translate(22 31)" fill="#2B2B2B"/>
<path fill-rule="evenodd" clip-rule="evenodd" d="M122 148L20 148V147L122 147V148Z" fill="#333333"/>
<path fill-rule="evenodd" clip-rule="evenodd" d="M122 147L20 147V146L122 146V147Z" fill="#242424"/>
<rect x="31" y="138" width="10" height="1" rx="0.5" fill="#BDBDBD"/>
<rect x="101" y="138" width="10" height="1" rx="0.5" fill="#BDBDBD"/>
<path d="M31 155V156.5C31 157.605 31.8954 158.5 33 158.5H37.5C38.6046 158.5 39.5 157.605 39.5 156.5V155" stroke="#BDBDBD"/>
<path d="M102 158.5V157C102 155.895 102.895 155 104 155H108.5C109.605 155 110.5 155.895 110.5 157V158.5" stroke="#BDBDBD"/>
<g filter="url(#filter16_d_204_68)">
<rect x="54" y="130" width="34" height="34" rx="8" fill="#333333"/>
<g filter="url(#filter17_iii_204_68)">
<rect x="55" y="130" width="32" height="34" rx="6" fill="#828282"/>
</g>
<g filter="url(#filter18_d_204_68)">
<rect x="59" y="135" width="24" height="24" rx="2" fill="url(#paint3_linear_204_68)"/>
</g>
</g>
<g filter="url(#filter19_d_204_68)">
<rect x="62" y="16" width="18" height="3" rx="1.5" fill="black"/>
</g>
<g filter="url(#filter20_d_204_68)">
<mask id="path-46-inside-1_204_68" fill="white">
<path d="M20 23C20 22.4477 20.4477 22 21 22H121C121.552 22 122 22.4477 122 23V126C122 126.552 121.552 127 121 127H21C20.4477 127 20 126.552 20 126V23Z"/>
</mask>
<path d="M20 23C20 22.4477 20.4477 22 21 22H121C121.552 22 122 22.4477 122 23V126C122 126.552 121.552 127 121 127H21C20.4477 127 20 126.552 20 126V23Z" fill="#333333" fill-opacity="0.4" shape-rendering="crispEdges"/>
<path d="M21 23H121V21H21V23ZM121 23V126H123V23H121ZM121 126H21V128H121V126ZM21 126V23H19V126H21ZM21 126H21H19C19 127.105 19.8954 128 21 128V126ZM121 126V128C122.105 128 123 127.105 123 126H121ZM121 23H123C123 21.8954 122.105 21 121 21V23ZM21 21C19.8954 21 19 21.8954 19 23H21V23V21Z" fill="black" mask="url(#path-46-inside-1_204_68)"/>
</g>
</g>
</g>
</g>
</g>
<defs>
<filter id="filter0_di_204_68" x="0" y="0" width="140" height="275" filterUnits="userSpaceOnUse" color-interpolation-filters="sRGB">
<feFlood flood-opacity="0" result="BackgroundImageFix"/>
<feColorMatrix in="SourceAlpha" type="matrix" values="0 0 0 0 0 0 0 0 0 0 0 0 0 0 0 0 0 0 127 0" result="hardAlpha"/>
<feOffset dx="-5" dy="4"/>
<feGaussianBlur stdDeviation="2"/>
<feComposite in2="hardAlpha" operator="out"/>
<feColorMatrix type="matrix" values="0 0 0 0 0 0 0 0 0 0 0 0 0 0 0 0 0 0 0.25 0"/>
<feBlend mode="normal" in2="BackgroundImageFix" result="effect1_dropShadow_204_68"/>
<feBlend mode="normal" in="SourceGraphic" in2="effect1_dropShadow_204_68" result="shape"/>
<feColorMatrix in="SourceAlpha" type="matrix" values="0 0 0 0 0 0 0 0 0 0 0 0 0 0 0 0 0 0 127 0" result="hardAlpha"/>
<feMorphology radius="1" operator="erode" in="SourceAlpha" result="effect2_innerShadow_204_68"/>
<feOffset dx="9" dy="10"/>
<feGaussianBlur stdDeviation="2.5"/>
<feComposite in2="hardAlpha" operator="arithmetic" k2="-1" k3="1"/>
<feColorMatrix type="matrix" values="0 0 0 0 0 0 0 0 0 0 0 0 0 0 0 0 0 0 0.25 0"/>
<feBlend mode="normal" in2="shape" result="effect2_innerShadow_204_68"/>
</filter>
<filter id="filter1_ii_204_68" x="16" y="172" width="111" height="88" filterUnits="userSpaceOnUse" color-interpolation-filters="sRGB">
<feFlood flood-opacity="0" result="BackgroundImageFix"/>
<feBlend mode="normal" in="SourceGraphic" in2="BackgroundImageFix" result="shape"/>
<feColorMatrix in="SourceAlpha" type="matrix" values="0 0 0 0 0 0 0 0 0 0 0 0 0 0 0 0 0 0 127 0" result="hardAlpha"/>
<feMorphology radius="1" operator="erode" in="SourceAlpha" result="effect1_innerShadow_204_68"/>
<feOffset dy="-3"/>
<feGaussianBlur stdDeviation="2"/>
<feComposite in2="hardAlpha" operator="arithmetic" k2="-1" k3="1"/>
<feColorMatrix type="matrix" values="0 0 0 0 0 0 0 0 0 0 0 0 0 0 0 0 0 0 0.03 0"/>
<feBlend mode="normal" in2="shape" result="effect1_innerShadow_204_68"/>
<feColorMatrix in="SourceAlpha" type="matrix" values="0 0 0 0 0 0 0 0 0 0 0 0 0 0 0 0 0 0 127 0" result="hardAlpha"/>
<feOffset dy="1"/>
<feComposite in2="hardAlpha" operator="arithmetic" k2="-1" k3="1"/>
<feColorMatrix type="matrix" values="0 0 0 0 1 0 0 0 0 1 0 0 0 0 1 0 0 0 1 0"/>
<feBlend mode="normal" in2="effect1_innerShadow_204_68" result="effect2_innerShadow_204_68"/>
</filter>
<filter id="filter2_di_204_68" x="68" y="214" width="7" height="2.5" filterUnits="userSpaceOnUse" color-interpolation-filters="sRGB">
<feFlood flood-opacity="0" result="BackgroundImageFix"/>
<feColorMatrix in="SourceAlpha" type="matrix" values="0 0 0 0 0 0 0 0 0 0 0 0 0 0 0 0 0 0 127 0" result="hardAlpha"/>
<feOffset dy="0.5"/>
<feComposite in2="hardAlpha" operator="out"/>
<feColorMatrix type="matrix" values="0 0 0 0 0 0 0 0 0 0 0 0 0 0 0 0 0 0 0.1 0"/>
<feBlend mode="normal" in2="BackgroundImageFix" result="effect1_dropShadow_204_68"/>
<feBlend mode="normal" in="SourceGraphic" in2="effect1_dropShadow_204_68" result="shape"/>
<feColorMatrix in="SourceAlpha" type="matrix" values="0 0 0 0 0 0 0 0 0 0 0 0 0 0 0 0 0 0 127 0" result="hardAlpha"/>
<feOffset dy="0.5"/>
<feComposite in2="hardAlpha" operator="arithmetic" k2="-1" k3="1"/>
<feColorMatrix type="matrix" values="0 0 0 0 1 0 0 0 0 1 0 0 0 0 1 0 0 0 1 0"/>
<feBlend mode="normal" in2="shape" result="effect2_innerShadow_204_68"/>
</filter>
<filter id="filter3_d_204_68" x="24.6108" y="181.727" width="15.3892" height="7.77271" filterUnits="userSpaceOnUse" color-interpolation-filters="sRGB">
<feFlood flood-opacity="0" result="BackgroundImageFix"/>
<feColorMatrix in="SourceAlpha" type="matrix" values="0 0 0 0 0 0 0 0 0 0 0 0 0 0 0 0 0 0 127 0" result="hardAlpha"/>
<feOffset dy="0.5"/>
<feComposite in2="hardAlpha" operator="out"/>
<feColorMatrix type="matrix" values="0 0 0 0 1 0 0 0 0 1 0 0 0 0 1 0 0 0 1 0"/>
<feBlend mode="normal" in2="BackgroundImageFix" result="effect1_dropShadow_204_68"/>
<feBlend mode="normal" in="SourceGraphic" in2="effect1_dropShadow_204_68" result="shape"/>
</filter>
<filter id="filter4_d_204_68" x="62.7528" y="181.628" width="16.4313" height="7.94885" filterUnits="userSpaceOnUse" color-interpolation-filters="sRGB">
<feFlood flood-opacity="0" result="BackgroundImageFix"/>
<feColorMatrix in="SourceAlpha" type="matrix" values="0 0 0 0 0 0 0 0 0 0 0 0 0 0 0 0 0 0 127 0" result="hardAlpha"/>
<feOffset dy="0.5"/>
<feComposite in2="hardAlpha" operator="out"/>
<feColorMatrix type="matrix" values="0 0 0 0 1 0 0 0 0 1 0 0 0 0 1 0 0 0 1 0"/>
<feBlend mode="normal" in2="BackgroundImageFix" result="effect1_dropShadow_204_68"/>
<feBlend mode="normal" in="SourceGraphic" in2="effect1_dropShadow_204_68" result="shape"/>
</filter>
<filter id="filter5_d_204_68" x="24.5824" y="202.727" width="14.6926" height="9.06812" filterUnits="userSpaceOnUse" color-interpolation-filters="sRGB">
<feFlood flood-opacity="0" result="BackgroundImageFix"/>
<feColorMatrix in="SourceAlpha" type="matrix" values="0 0 0 0 0 0 0 0 0 0 0 0 0 0 0 0 0 0 127 0" result="hardAlpha"/>
<feOffset dy="0.5"/>
<feComposite in2="hardAlpha" operator="out"/>
<feColorMatrix type="matrix" values="0 0 0 0 1 0 0 0 0 1 0 0 0 0 1 0 0 0 1 0"/>
<feBlend mode="normal" in2="BackgroundImageFix" result="effect1_dropShadow_204_68"/>
<feBlend mode="normal" in="SourceGraphic" in2="effect1_dropShadow_204_68" result="shape"/>
</filter>
<filter id="filter6_d_204_68" x="64.7671" y="202.727" width="11.8835" height="9" filterUnits="userSpaceOnUse" color-interpolation-filters="sRGB">
<feFlood flood-opacity="0" result="BackgroundImageFix"/>
<feColorMatrix in="SourceAlpha" type="matrix" values="0 0 0 0 0 0 0 0 0 0 0 0 0 0 0 0 0 0 127 0" result="hardAlpha"/>
<feOffset dy="0.5"/>
<feComposite in2="hardAlpha" operator="out"/>
<feColorMatrix type="matrix" values="0 0 0 0 1 0 0 0 0 1 0 0 0 0 1 0 0 0 1 0"/>
<feBlend mode="normal" in2="BackgroundImageFix" result="effect1_dropShadow_204_68"/>
<feBlend mode="normal" in="SourceGraphic" in2="effect1_dropShadow_204_68" result="shape"/>
</filter>
<filter id="filter7_d_204_68" x="100.639" y="202.628" width="18.3582" height="7.97876" filterUnits="userSpaceOnUse" color-interpolation-filters="sRGB">
<feFlood flood-opacity="0" result="BackgroundImageFix"/>
<feColorMatrix in="SourceAlpha" type="matrix" values="0 0 0 0 0 0 0 0 0 0 0 0 0 0 0 0 0 0 127 0" result="hardAlpha"/>
<feOffset dy="0.5"/>
<feComposite in2="hardAlpha" operator="out"/>
<feColorMatrix type="matrix" values="0 0 0 0 1 0 0 0 0 1 0 0 0 0 1 0 0 0 1 0"/>
<feBlend mode="normal" in2="BackgroundImageFix" result="effect1_dropShadow_204_68"/>
<feBlend mode="normal" in="SourceGraphic" in2="effect1_dropShadow_204_68" result="shape"/>
</filter>
<filter id="filter8_d_204_68" x="24.4829" y="224.727" width="18.9001" height="9" filterUnits="userSpaceOnUse" color-interpolation-filters="sRGB">
<feFlood flood-opacity="0" result="BackgroundImageFix"/>
<feColorMatrix in="SourceAlpha" type="matrix" values="0 0 0 0 0 0 0 0 0 0 0 0 0 0 0 0 0 0 127 0" result="hardAlpha"/>
<feOffset dy="0.5"/>
<feComposite in2="hardAlpha" operator="out"/>
<feColorMatrix type="matrix" values="0 0 0 0 1 0 0 0 0 1 0 0 0 0 1 0 0 0 1 0"/>
<feBlend mode="normal" in2="BackgroundImageFix" result="effect1_dropShadow_204_68"/>
<feBlend mode="normal" in="SourceGraphic" in2="effect1_dropShadow_204_68" result="shape"/>
</filter>
<filter id="filter9_d_204_68" x="63.6072" y="224.628" width="15.1951" height="7.97168" filterUnits="userSpaceOnUse" color-interpolation-filters="sRGB">
<feFlood flood-opacity="0" result="BackgroundImageFix"/>
<feColorMatrix in="SourceAlpha" type="matrix" values="0 0 0 0 0 0 0 0 0 0 0 0 0 0 0 0 0 0 127 0" result="hardAlpha"/>
<feOffset dy="0.5"/>
<feComposite in2="hardAlpha" operator="out"/>
<feColorMatrix type="matrix" values="0 0 0 0 1 0 0 0 0 1 0 0 0 0 1 0 0 0 1 0"/>
<feBlend mode="normal" in2="BackgroundImageFix" result="effect1_dropShadow_204_68"/>
<feBlend mode="normal" in="SourceGraphic" in2="effect1_dropShadow_204_68" result="shape"/>
</filter>
<filter id="filter10_d_204_68" x="98.6392" y="224.617" width="20.7477" height="9.11011" filterUnits="userSpaceOnUse" color-interpolation-filters="sRGB">
<feFlood flood-opacity="0" result="BackgroundImageFix"/>
<feColorMatrix in="SourceAlpha" type="matrix" values="0 0 0 0 0 0 0 0 0 0 0 0 0 0 0 0 0 0 127 0" result="hardAlpha"/>
<feOffset dy="0.5"/>
<feComposite in2="hardAlpha" operator="out"/>
<feColorMatrix type="matrix" values="0 0 0 0 1 0 0 0 0 1 0 0 0 0 1 0 0 0 1 0"/>
<feBlend mode="normal" in2="BackgroundImageFix" result="effect1_dropShadow_204_68"/>
<feBlend mode="normal" in="SourceGraphic" in2="effect1_dropShadow_204_68" result="shape"/>
</filter>
<filter id="filter11_d_204_68" x="98.1704" y="245.727" width="17.8723" height="7.77271" filterUnits="userSpaceOnUse" color-interpolation-filters="sRGB">
<feFlood flood-opacity="0" result="BackgroundImageFix"/>
<feColorMatrix in="SourceAlpha" type="matrix" values="0 0 0 0 0 0 0 0 0 0 0 0 0 0 0 0 0 0 127 0" result="hardAlpha"/>
<feOffset dy="0.5"/>
<feComposite in2="hardAlpha" operator="out"/>
<feColorMatrix type="matrix" values="0 0 0 0 1 0 0 0 0 1 0 0 0 0 1 0 0 0 1 0"/>
<feBlend mode="normal" in2="BackgroundImageFix" result="effect1_dropShadow_204_68"/>
<feBlend mode="normal" in="SourceGraphic" in2="effect1_dropShadow_204_68" result="shape"/>
</filter>
<filter id="filter12_d_204_68" x="102.739" y="181.628" width="15.5597" height="7.97168" filterUnits="userSpaceOnUse" color-interpolation-filters="sRGB">
<feFlood flood-opacity="0" result="BackgroundImageFix"/>
<feColorMatrix in="SourceAlpha" type="matrix" values="0 0 0 0 0 0 0 0 0 0 0 0 0 0 0 0 0 0 127 0" result="hardAlpha"/>
<feOffset dy="0.5"/>
<feComposite in2="hardAlpha" operator="out"/>
<feColorMatrix type="matrix" values="0 0 0 0 1 0 0 0 0 1 0 0 0 0 1 0 0 0 1 0"/>
<feBlend mode="normal" in2="BackgroundImageFix" result="effect1_dropShadow_204_68"/>
<feBlend mode="normal" in="SourceGraphic" in2="effect1_dropShadow_204_68" result="shape"/>
</filter>
<filter id="filter13_d_204_68" x="24.554" y="245" width="12.196" height="8.20166" filterUnits="userSpaceOnUse" color-interpolation-filters="sRGB">
<feFlood flood-opacity="0" result="BackgroundImageFix"/>
<feColorMatrix in="SourceAlpha" type="matrix" values="0 0 0 0 0 0 0 0 0 0 0 0 0 0 0 0 0 0 127 0" result="hardAlpha"/>
<feOffset dy="0.5"/>
<feComposite in2="hardAlpha" operator="out"/>
<feColorMatrix type="matrix" values="0 0 0 0 1 0 0 0 0 1 0 0 0 0 1 0 0 0 1 0"/>
<feBlend mode="normal" in2="BackgroundImageFix" result="effect1_dropShadow_204_68"/>
<feBlend mode="normal" in="SourceGraphic" in2="effect1_dropShadow_204_68" result="shape"/>
</filter>
<filter id="filter14_d_204_68" x="65.5966" y="245.628" width="13.6534" height="7.97168" filterUnits="userSpaceOnUse" color-interpolation-filters="sRGB">
<feFlood flood-opacity="0" result="BackgroundImageFix"/>
<feColorMatrix in="SourceAlpha" type="matrix" values="0 0 0 0 0 0 0 0 0 0 0 0 0 0 0 0 0 0 127 0" result="hardAlpha"/>
<feOffset dy="0.5"/>
<feComposite in2="hardAlpha" operator="out"/>
<feColorMatrix type="matrix" values="0 0 0 0 1 0 0 0 0 1 0 0 0 0 1 0 0 0 1 0"/>
<feBlend mode="normal" in2="BackgroundImageFix" result="effect1_dropShadow_204_68"/>
<feBlend mode="normal" in="SourceGraphic" in2="effect1_dropShadow_204_68" result="shape"/>
</filter>
<filter id="filter15_di_204_68" x="16" y="7" width="111" height="164" filterUnits="userSpaceOnUse" color-interpolation-filters="sRGB">
<feFlood flood-opacity="0" result="BackgroundImageFix"/>
<feColorMatrix in="SourceAlpha" type="matrix" values="0 0 0 0 0 0 0 0 0 0 0 0 0 0 0 0 0 0 127 0" result="hardAlpha"/>
<feOffset dy="1"/>
<feComposite in2="hardAlpha" operator="out"/>
<feColorMatrix type="matrix" values="0 0 0 0 1 0 0 0 0 1 0 0 0 0 1 0 0 0 1 0"/>
<feBlend mode="normal" in2="BackgroundImageFix" result="effect1_dropShadow_204_68"/>
<feBlend mode="normal" in="SourceGraphic" in2="effect1_dropShadow_204_68" result="shape"/>
<feColorMatrix in="SourceAlpha" type="matrix" values="0 0 0 0 0 0 0 0 0 0 0 0 0 0 0 0 0 0 127 0" result="hardAlpha"/>
<feMorphology radius="1" operator="erode" in="SourceAlpha" result="effect2_innerShadow_204_68"/>
<feOffset/>
<feGaussianBlur stdDeviation="0.5"/>
<feComposite in2="hardAlpha" operator="arithmetic" k2="-1" k3="1"/>
<feColorMatrix type="matrix" values="0 0 0 0 0 0 0 0 0 0 0 0 0 0 0 0 0 0 0.5 0"/>
<feBlend mode="normal" in2="shape" result="effect2_innerShadow_204_68"/>
</filter>
<filter id="filter16_d_204_68" x="47" y="127" width="48" height="48" filterUnits="userSpaceOnUse" color-interpolation-filters="sRGB">
<feFlood flood-opacity="0" result="BackgroundImageFix"/>
<feColorMatrix in="SourceAlpha" type="matrix" values="0 0 0 0 0 0 0 0 0 0 0 0 0 0 0 0 0 0 127 0" result="hardAlpha"/>
<feMorphology radius="1" operator="dilate" in="SourceAlpha" result="effect1_dropShadow_204_68"/>
<feOffset dy="4"/>
<feGaussianBlur stdDeviation="3"/>
<feComposite in2="hardAlpha" operator="out"/>
<feColorMatrix type="matrix" values="0 0 0 0 0 0 0 0 0 0 0 0 0 0 0 0 0 0 0.3 0"/>
<feBlend mode="normal" in2="BackgroundImageFix" result="effect1_dropShadow_204_68"/>
<feBlend mode="normal" in="SourceGraphic" in2="effect1_dropShadow_204_68" result="shape"/>
</filter>
<filter id="filter17_iii_204_68" x="55" y="130" width="32" height="34.5" filterUnits="userSpaceOnUse" color-interpolation-filters="sRGB">
<feFlood flood-opacity="0" result="BackgroundImageFix"/>
<feBlend mode="normal" in="SourceGraphic" in2="BackgroundImageFix" result="shape"/>
<feColorMatrix in="SourceAlpha" type="matrix" values="0 0 0 0 0 0 0 0 0 0 0 0 0 0 0 0 0 0 127 0" result="hardAlpha"/>
<feMorphology radius="0.5" operator="erode" in="SourceAlpha" result="effect1_innerShadow_204_68"/>
<feOffset dy="1"/>
<feComposite in2="hardAlpha" operator="arithmetic" k2="-1" k3="1"/>
<feColorMatrix type="matrix" values="0 0 0 0 0.645719 0 0 0 0 0.645719 0 0 0 0 0.645719 0 0 0 1 0"/>
<feBlend mode="normal" in2="shape" result="effect1_innerShadow_204_68"/>
<feColorMatrix in="SourceAlpha" type="matrix" values="0 0 0 0 0 0 0 0 0 0 0 0 0 0 0 0 0 0 127 0" result="hardAlpha"/>
<feMorphology radius="0.5" operator="erode" in="SourceAlpha" result="effect2_innerShadow_204_68"/>
<feOffset/>
<feComposite in2="hardAlpha" operator="arithmetic" k2="-1" k3="1"/>
<feColorMatrix type="matrix" values="0 0 0 0 0.404997 0 0 0 0 0.387087 0 0 0 0 0.387087 0 0 0 1 0"/>
<feBlend mode="normal" in2="effect1_innerShadow_204_68" result="effect2_innerShadow_204_68"/>
<feColorMatrix in="SourceAlpha" type="matrix" values="0 0 0 0 0 0 0 0 0 0 0 0 0 0 0 0 0 0 127 0" result="hardAlpha"/>
<feOffset dy="-0.8"/>
<feComposite in2="hardAlpha" operator="arithmetic" k2="-1" k3="1"/>
<feColorMatrix type="matrix" values="0 0 0 0 0 0 0 0 0 0 0 0 0 0 0 0 0 0 0.18 0"/>
<feBlend mode="normal" in2="effect2_innerShadow_204_68" result="effect3_innerShadow_204_68"/>
</filter>
<filter id="filter18_d_204_68" x="58.7" y="135" width="24.6" height="24.6" filterUnits="userSpaceOnUse" color-interpolation-filters="sRGB">
<feFlood flood-opacity="0" result="BackgroundImageFix"/>
<feColorMatrix in="SourceAlpha" type="matrix" values="0 0 0 0 0 0 0 0 0 0 0 0 0 0 0 0 0 0 127 0" result="hardAlpha"/>
<feMorphology radius="0.3" operator="dilate" in="SourceAlpha" result="effect1_dropShadow_204_68"/>
<feOffset dy="0.3"/>
<feComposite in2="hardAlpha" operator="out"/>
<feColorMatrix type="matrix" values="0 0 0 0 0.671191 0 0 0 0 0.671191 0 0 0 0 0.671191 0 0 0 1 0"/>
<feBlend mode="normal" in2="BackgroundImageFix" result="effect1_dropShadow_204_68"/>
<feBlend mode="normal" in="SourceGraphic" in2="effect1_dropShadow_204_68" result="shape"/>
</filter>
<filter id="filter19_d_204_68" x="62" y="16" width="18" height="4" filterUnits="userSpaceOnUse" color-interpolation-filters="sRGB">
<feFlood flood-opacity="0" result="BackgroundImageFix"/>
<feColorMatrix in="SourceAlpha" type="matrix" values="0 0 0 0 0 0 0 0 0 0 0 0 0 0 0 0 0 0 127 0" result="hardAlpha"/>
<feOffset dy="1"/>
<feComposite in2="hardAlpha" operator="out"/>
<feColorMatrix type="matrix" values="0 0 0 0 1 0 0 0 0 1 0 0 0 0 1 0 0 0 0.25 0"/>
<feBlend mode="normal" in2="BackgroundImageFix" result="effect1_dropShadow_204_68"/>
<feBlend mode="normal" in="SourceGraphic" in2="effect1_dropShadow_204_68" result="shape"/>
</filter>
<filter id="filter20_d_204_68" x="16" y="22" width="110" height="113" filterUnits="userSpaceOnUse" color-interpolation-filters="sRGB">
<feFlood flood-opacity="0" result="BackgroundImageFix"/>
<feColorMatrix in="SourceAlpha" type="matrix" values="0 0 0 0 0 0 0 0 0 0 0 0 0 0 0 0 0 0 127 0" result="hardAlpha"/>
<feOffset dy="4"/>
<feGaussianBlur stdDeviation="2"/>
<feComposite in2="hardAlpha" operator="out"/>
<feColorMatrix type="matrix" values="0 0 0 0 0 0 0 0 0 0 0 0 0 0 0 0 0 0 0.25 0"/>
<feBlend mode="normal" in2="BackgroundImageFix" result="effect1_dropShadow_204_68"/>
<feBlend mode="normal" in="SourceGraphic" in2="effect1_dropShadow_204_68" result="shape"/>
</filter>
<linearGradient id="paint0_linear_204_68" x1="71" y1="175" x2="71" y2="204.591" gradientUnits="userSpaceOnUse">
<stop offset="0.450937" stop-color="#E0E0E0" stop-opacity="0"/>
<stop offset="1" stop-color="#DBD5D5"/>
</linearGradient>
<linearGradient id="paint1_linear_204_68" x1="71" y1="196" x2="71" y2="227" gradientUnits="userSpaceOnUse">
<stop offset="0.450937" stop-color="#E0E0E0" stop-opacity="0"/>
<stop offset="1" stop-color="#DBD5D5"/>
</linearGradient>
<linearGradient id="paint2_linear_204_68" x1="71" y1="218" x2="71" y2="247.591" gradientUnits="userSpaceOnUse">
<stop offset="0.450937" stop-color="#E0E0E0" stop-opacity="0"/>
<stop offset="1" stop-color="#DBD5D5"/>
</linearGradient>
<linearGradient id="paint3_linear_204_68" x1="71" y1="135" x2="71" y2="159" gradientUnits="userSpaceOnUse">
<stop stop-color="#212121"/>
<stop offset="1" stop-color="#444343"/>
</linearGradient>
<clipPath id="clip0_204_68">
<rect x="9" width="125" height="267" rx="18" fill="white"/>
</clipPath>
<clipPath id="clip1_204_68">
<rect x="16" y="175" width="111" height="85" rx="12" fill="white"/>
</clipPath>
<clipPath id="clip2_204_68">
<rect width="8" height="4" fill="white" transform="translate(32 185)"/>
</clipPath>
<clipPath id="clip3_204_68">
<rect x="16" y="7" width="111" height="163" rx="12" fill="white"/>
</clipPath>
</defs>
</svg>
